<svg width="133" height="45" viewBox="0 0 133 45" fill="none" xmlns="http://www.w3.org/2000/svg">
<path fill-rule="evenodd" clip-rule="evenodd" d="M22.0959 0L22.1026 20.0499L19.6752 22.4613H7V3.61106H12.9294C18.5589 3.61106 18.8602 3.60973 18.883 3.58835C18.8965 3.57499 19.6241 2.76274 20.5009 1.78215L22.0959 0ZM18.3814 9.16192C18.368 9.52396 18.3572 9.98219 18.3478 10.4137L18.3303 11.1966C18.0277 11.2847 17.8529 11.3395 17.7453 11.3756C17.5866 11.429 17.5476 11.4384 17.5369 11.4237C17.5301 11.413 17.2464 11.0643 16.9088 10.6475L16.2929 9.89001C16.0172 10.0209 15.7388 10.1585 15.4981 10.2788L15.0596 10.4979C15.5034 11.8752 15.6352 12.2867 15.6406 12.3014C15.646 12.3241 15.6191 12.3455 15.4631 12.4417C15.3609 12.5031 15.1955 12.6087 15.096 12.6755C14.9964 12.7423 14.9077 12.801 14.8983 12.8064C14.8875 12.8117 14.6427 12.6113 14.2258 12.2546L13.5696 11.6922C13.5171 11.7416 13.267 11.9634 12.9778 12.2159C12.69 12.4684 12.4547 12.6808 12.4547 12.6888C12.4547 12.6955 12.6779 12.9881 12.9509 13.3367C13.2226 13.6854 13.4526 13.9793 13.4606 13.9887C13.4727 14.002 13.4431 14.0381 13.3342 14.149C13.2562 14.2278 13.1419 14.3494 13.0773 14.4189C13.0141 14.4883 12.9092 14.6086 12.8433 14.6861C12.7788 14.7635 12.7183 14.8277 12.7102 14.8303C12.7021 14.8317 12.3417 14.7021 11.9087 14.5404C11.4756 14.3788 11.1219 14.2479 11.1206 14.2492C11.1206 14.2505 10.9592 14.491 10.7615 14.7836C10.5638 15.0748 10.4038 15.3193 10.4065 15.3246C10.4078 15.3313 10.6539 15.5638 10.9538 15.8416C11.2537 16.1195 11.5254 16.372 11.559 16.4027L11.6195 16.4602C11.5752 16.5297 11.4958 16.682 11.4151 16.8436C11.3344 17.0053 11.2322 17.2163 11.1878 17.3125C11.1314 17.4394 11.1031 17.4875 11.0883 17.4835C11.0776 17.4809 10.7145 17.4207 10.2814 17.3513C9.84838 17.2818 9.49469 17.2257 9.49334 17.2284C9.492 17.2297 9.39113 17.5436 9.26875 17.9257C9.14637 18.3078 9.04954 18.6244 9.05492 18.6298C9.0603 18.6338 9.38575 18.8101 9.7771 19.0225C10.1698 19.2336 10.4926 19.4073 10.4939 19.4073C10.4966 19.4086 10.4764 19.5262 10.4509 19.6691C10.424 19.8121 10.3904 20.0111 10.3756 20.11C10.3608 20.2089 10.3446 20.2944 10.3392 20.2984C10.3339 20.3024 10.0205 20.3558 9.64262 20.4159C9.26606 20.476 8.91909 20.5308 8.87337 20.5388L8.78864 20.5509V21.8334H11.3775C11.3936 21.3725 11.4044 21.1373 11.4124 21.0118C11.4192 20.8875 11.438 20.6617 11.4528 20.5108C11.4676 20.3598 11.4958 20.1314 11.5133 20.0031C11.5321 19.8749 11.5671 19.6584 11.5926 19.5222C11.6182 19.3859 11.6639 19.1668 11.6949 19.0346C11.7258 18.9023 11.7809 18.6885 11.8172 18.5603C11.8535 18.432 11.9114 18.2423 11.945 18.1395C11.9786 18.0366 12.0391 17.8683 12.0768 17.7654C12.1158 17.6625 12.179 17.5036 12.218 17.4114C12.257 17.3192 12.331 17.1549 12.3834 17.044C12.4359 16.9345 12.526 16.7541 12.5851 16.6432C12.6443 16.5337 12.7411 16.3613 12.8003 16.2625C12.8608 16.1636 12.9671 15.9953 13.0383 15.8884C13.111 15.7815 13.232 15.6105 13.31 15.5077C13.3867 15.4048 13.5104 15.2485 13.5844 15.1603C13.6583 15.0721 13.7888 14.9252 13.8748 14.833C13.9596 14.7408 14.1075 14.5912 14.203 14.499C14.2985 14.4068 14.4491 14.2692 14.5379 14.1918C14.6266 14.1143 14.7692 13.9967 14.8539 13.9299C14.94 13.8618 15.1013 13.7415 15.213 13.6627C15.3259 13.5826 15.4954 13.4677 15.5895 13.4089C15.685 13.3488 15.8437 13.2539 15.9432 13.1965C16.0427 13.139 16.231 13.0388 16.3601 12.9747C16.4892 12.9092 16.6869 12.8157 16.7972 12.7676C16.9088 12.7182 17.0836 12.6461 17.1872 12.606C17.2907 12.5659 17.4723 12.5004 17.5906 12.4604C17.709 12.4203 17.8973 12.3602 18.0075 12.3281C18.1192 12.296 18.294 12.248 18.3976 12.2226C18.5011 12.1972 18.6732 12.1584 18.7808 12.1357C18.8884 12.1144 19.0673 12.081 19.1776 12.0623C19.2892 12.0436 19.4734 12.0168 19.5877 12.0021C19.7021 11.9874 19.8997 11.9661 20.0248 11.954C20.1512 11.9434 20.4175 11.9287 20.6165 11.9206C20.8169 11.914 21.0899 11.9126 21.2258 11.918L21.4705 11.9273V10.6582C21.0173 10.6742 20.7685 10.6796 20.6246 10.6809L20.3624 10.6849C19.7357 9.33425 19.5487 8.94282 19.5407 8.94282C19.5339 8.94416 19.269 8.99359 18.9543 9.05371L18.3814 9.16192ZM20.2265 12.5018C20.1015 12.5125 19.8715 12.5405 19.7155 12.5632C19.5608 12.5846 19.3282 12.6234 19.1977 12.6487C19.0686 12.6741 18.8629 12.7195 18.7405 12.7489C18.6195 12.7783 18.4379 12.8264 18.337 12.8558C18.2375 12.8839 18.0587 12.94 17.9403 12.9801C17.822 13.0201 17.6404 13.0856 17.5369 13.127C17.4333 13.1671 17.2638 13.2366 17.1603 13.282C17.0567 13.3274 16.851 13.4263 16.703 13.5024C16.5551 13.5772 16.3494 13.6894 16.2458 13.7509C16.1422 13.811 15.9674 13.9219 15.8558 13.9954C15.7455 14.0675 15.564 14.1958 15.4523 14.2786C15.3421 14.3614 15.1753 14.4923 15.0825 14.5685C14.9911 14.646 14.8243 14.7929 14.7127 14.8958C14.6024 14.9987 14.4289 15.1723 14.3281 15.2819C14.2272 15.3914 14.0887 15.5464 14.0201 15.6279C13.9528 15.7081 13.8358 15.8563 13.7605 15.9552C13.6852 16.0541 13.5615 16.2291 13.4848 16.3426C13.4082 16.4562 13.2979 16.6272 13.2414 16.7234C13.1836 16.8182 13.0881 16.9866 13.0289 17.0974C12.9698 17.207 12.8756 17.394 12.8205 17.5116C12.7653 17.6291 12.6779 17.8309 12.6255 17.9591C12.573 18.0874 12.4937 18.3011 12.448 18.4334C12.4022 18.5656 12.335 18.7754 12.3 18.901C12.2637 19.0252 12.2167 19.2029 12.1938 19.2951C12.1709 19.3872 12.1346 19.5489 12.1131 19.6558C12.0902 19.7626 12.0566 19.943 12.0378 20.0566C12.019 20.1701 11.9921 20.3625 11.9773 20.4841C11.9625 20.6056 11.941 20.81 11.9289 20.9383C11.9181 21.0665 11.9046 21.3204 11.8993 21.5021L11.8885 21.8334H12.6013C12.5865 21.7452 12.5878 21.6209 12.5959 21.4994C12.6026 21.3778 12.6174 21.2162 12.6282 21.1387C12.6403 21.0612 12.6645 20.9356 12.6847 20.8581C12.7035 20.7806 12.7425 20.6577 12.7721 20.5843C12.8017 20.5108 12.8487 20.4119 12.8783 20.3638C12.9066 20.3157 12.959 20.2423 12.994 20.2008C13.0303 20.1594 13.08 20.1073 13.1056 20.0859C13.1325 20.0646 13.1836 20.0272 13.2199 20.0045C13.2576 19.9804 13.3356 19.9457 13.3947 19.9256C13.4929 19.8936 13.5211 19.8909 13.6973 19.8909C13.8614 19.8922 13.9138 19.8976 14.0201 19.9256C14.0914 19.9443 14.3657 20.0445 14.632 20.1487C14.8983 20.2516 16.0548 20.7005 17.2006 21.144L19.2851 21.9509L21.6077 19.6491C19.9603 15.6212 19.4694 14.4068 19.4546 14.3521C19.4398 14.2973 19.4237 14.2064 19.4183 14.1517C19.4129 14.0835 19.4183 14.0194 19.4317 13.9513C19.4438 13.8965 19.468 13.8204 19.4869 13.7843C19.5044 13.7469 19.5447 13.6841 19.577 13.6454C19.6093 13.6053 19.6778 13.5398 19.7289 13.4997C19.7814 13.4597 19.8836 13.3982 19.9576 13.3621C20.0315 13.3261 20.1472 13.2793 20.2131 13.2579C20.2803 13.2366 20.4041 13.2032 20.4888 13.1845C20.5749 13.1657 20.7107 13.1417 20.7914 13.1297C20.8734 13.119 21.0187 13.103 21.1141 13.0963C21.211 13.0883 21.3307 13.0829 21.3804 13.0829H21.4705V12.455C21.0281 12.4577 20.7994 12.463 20.6771 12.4697C20.556 12.4751 20.353 12.4898 20.2265 12.5018ZM22.9364 0.0414143C22.9552 0.0627895 23.6814 0.875044 26.1304 3.61106H37.9987L37.9919 22.4546L25.3101 22.4613L22.8826 20.0499L22.8813 10.0356C22.8799 3.97978 22.884 0.0173673 22.8907 0.0120235C22.8974 0.00534378 22.9189 0.0187032 22.9364 0.0414143ZM27.763 10.5473C27.7066 10.6368 27.6138 10.7931 27.5559 10.892C27.4981 10.9908 27.3811 11.2099 27.2937 11.3796C27.2076 11.5479 27.1081 11.7523 27.0731 11.8338C27.0368 11.914 26.975 12.0676 26.9346 12.1745C26.8943 12.2814 26.8445 12.4336 26.823 12.5151C26.8028 12.5953 26.7786 12.7155 26.7705 12.7823C26.7611 12.8478 26.7598 12.9266 26.7652 12.956C26.7705 12.9867 26.7921 13.0281 26.8163 13.0535C26.8391 13.0789 26.8902 13.119 26.9306 13.143C26.9723 13.1671 27.0449 13.2032 27.092 13.2232C27.1404 13.2432 27.1955 13.2646 27.213 13.2713L27.2466 13.2833C27.1915 13.3394 27.1444 13.4049 27.1054 13.4637C27.0678 13.5224 27.0005 13.6427 26.9588 13.7309C26.9158 13.819 26.8526 13.9633 26.8203 14.0515C26.7867 14.1397 26.7356 14.296 26.706 14.3988C26.6751 14.5017 26.6293 14.682 26.6038 14.7996C26.5782 14.9172 26.5433 15.0882 26.5285 15.1804C26.5137 15.2725 26.4854 15.4649 26.468 15.6079C26.4491 15.7508 26.4195 15.9218 26.4007 15.9886C26.3832 16.0541 26.3362 16.1983 26.2985 16.3092C26.2595 16.4188 26.1896 16.5991 26.1412 16.71C26.0928 16.8196 25.9959 17.024 25.926 17.1642C25.8561 17.3032 25.7525 17.4996 25.6974 17.5984C25.6409 17.6973 25.5346 17.8776 25.4607 17.9992C25.3867 18.1208 25.2509 18.3332 25.1594 18.4735C25.0666 18.6124 24.9026 18.8502 24.795 19.0012C24.686 19.1521 24.5354 19.3538 24.4601 19.4514C24.3848 19.5489 24.3216 19.6331 24.3216 19.6384C24.3216 19.6437 24.6417 19.967 25.0317 20.3545L25.7404 21.0612L26.975 19.4621L28.1463 17.6185C29.0944 15.8069 29.3957 15.2418 29.428 15.1937C29.4602 15.1456 29.5329 15.0548 29.5907 14.9906C29.6485 14.9279 29.7373 14.837 29.7884 14.7903C29.8408 14.7435 29.9282 14.6714 29.9834 14.6299C30.0399 14.5885 30.1246 14.5338 30.1717 14.507C30.2201 14.4817 30.2954 14.4509 30.3398 14.4376L30.4205 14.4149C30.5455 14.5498 30.6222 14.654 30.6693 14.7341C30.7177 14.8143 30.7997 14.976 30.8522 15.0935C30.9059 15.2111 30.9839 15.4008 31.0256 15.5143C31.0687 15.6279 31.1359 15.8203 31.1763 15.9418C31.2166 16.0634 31.2906 16.3092 31.3417 16.4896C31.3941 16.6699 31.4493 16.8703 31.4667 16.9371L31.499 17.0574C32.8842 18.5416 33.2944 18.9731 33.3051 18.9731C33.3173 18.9744 33.3751 18.9397 33.4356 18.8983C33.4961 18.8555 33.6077 18.766 33.6817 18.7006C33.757 18.6338 33.8807 18.5122 33.9561 18.428C34.0314 18.3452 34.1484 18.2063 34.217 18.1208C34.2869 18.0353 34.4079 17.8723 34.4873 17.7587C34.568 17.6452 34.6876 17.4648 34.7549 17.3579C34.8208 17.2511 34.9257 17.0774 34.9862 16.9705C35.0481 16.8636 35.1664 16.6446 35.2498 16.4829C35.3332 16.3213 35.4569 16.0688 35.5255 15.9218C35.5927 15.7748 35.6949 15.5464 35.7501 15.4141C35.8052 15.2819 35.8872 15.0802 35.9316 14.9666C35.9747 14.853 36.054 14.642 36.1051 14.499C36.1576 14.3561 36.2369 14.1156 36.284 13.9646C36.331 13.8137 36.3969 13.5826 36.4306 13.4503C36.4642 13.318 36.5072 13.131 36.5247 13.0362C36.5435 12.94 36.5691 12.7877 36.5825 12.6955C36.5987 12.5806 36.6054 12.4417 36.6054 12.2546C36.6054 12.0248 36.6014 11.9607 36.5772 11.8605C36.5624 11.7937 36.5341 11.7042 36.5139 11.6601C36.479 11.5813 36.479 11.58 36.4359 11.5893C36.4117 11.596 36.2019 11.6267 35.9679 11.6588C35.7353 11.6922 35.3628 11.7403 35.1409 11.7657C34.919 11.7911 34.6083 11.8245 34.4483 11.8392C34.2896 11.8538 34.0327 11.8752 33.8767 11.8859C33.722 11.8979 33.4221 11.9126 33.211 11.922C32.9972 11.93 32.6811 11.934 32.4956 11.9287C32.3127 11.9247 32.0881 11.914 31.998 11.9073C31.9079 11.8993 31.7599 11.8846 31.6712 11.8726C31.5824 11.8619 31.4412 11.8365 31.3551 11.8178C31.2704 11.7991 31.1521 11.767 31.0929 11.7456C31.0337 11.7243 30.9772 11.7002 30.9651 11.6935C30.949 11.6828 30.9597 11.6441 31.0364 11.4304C31.0862 11.2914 31.1252 11.1779 31.1238 11.1765C31.1211 11.1752 30.6477 10.9788 30.0708 10.7397C29.4939 10.4992 29.0218 10.3055 29.0218 10.3068C29.0205 10.3095 28.9788 10.3816 28.9277 10.4671C28.8416 10.6101 28.8322 10.6221 28.8066 10.6087C28.7919 10.6007 28.6775 10.5379 28.5511 10.4711C28.4261 10.403 28.2606 10.3162 28.1853 10.2788C28.11 10.2414 28.0347 10.2106 28.0199 10.2106C28.0024 10.2106 27.9715 10.24 27.9298 10.2961C27.8948 10.3442 27.8195 10.4564 27.763 10.5473ZM7 23.2361H19.6886L22.1026 25.6341V35.3157C22.1026 40.6408 22.0999 44.9987 22.0959 44.9987C22.0932 44.9987 22.073 44.9866 22.0528 44.9733C22.0327 44.9599 21.913 44.8931 21.7866 44.825C21.6615 44.7569 21.4315 44.6366 21.2755 44.5565C21.1209 44.4776 20.8788 44.3587 20.7376 44.2933C20.5977 44.2278 20.3772 44.1263 20.2467 44.0702C20.1176 44.0127 19.8419 43.8992 19.6348 43.8164C19.4277 43.7335 19.1413 43.624 18.996 43.5719C18.8521 43.5211 18.6006 43.4356 18.4379 43.3822C18.2752 43.3287 17.9887 43.2419 17.7991 43.1885C17.6108 43.1337 17.2907 43.0468 17.0863 42.9947C16.8833 42.9426 16.5175 42.8518 16.2727 42.793C16.0293 42.7342 15.6326 42.6407 15.3918 42.5859C15.1524 42.5298 14.7409 42.4377 14.4773 42.3802C14.2151 42.3228 13.8063 42.2359 13.5696 42.1865C13.3329 42.1371 12.955 42.0583 12.729 42.0102C12.5044 41.9634 12.2099 41.8966 12.0768 41.8632C11.9436 41.8298 11.7446 41.7737 11.633 41.7376C11.5227 41.7015 11.3264 41.6307 11.1959 41.58C11.0668 41.5292 10.8678 41.4477 10.7521 41.3983C10.6378 41.3489 10.4589 41.2674 10.3554 41.2193C10.2518 41.1698 10.0797 41.0803 9.97211 41.0216C9.86586 40.9614 9.71658 40.8759 9.64262 40.8292C9.56865 40.7838 9.44493 40.7009 9.36693 40.6462C9.29027 40.59 9.17192 40.5019 9.10468 40.4498C9.03878 40.3963 8.90833 40.2841 8.81554 40.2C8.72409 40.1158 8.58288 39.9755 8.50219 39.8873C8.42284 39.8005 8.30181 39.6576 8.23322 39.5707C8.16598 39.4839 8.07722 39.3663 8.03822 39.3102C7.99922 39.2528 7.91718 39.1258 7.85801 39.027C7.79884 38.9281 7.69932 38.7438 7.63746 38.6195C7.57559 38.4939 7.48952 38.3016 7.44514 38.192C7.40211 38.0811 7.33756 37.9048 7.30259 37.7979C7.26897 37.691 7.21383 37.496 7.18155 37.3637C7.14793 37.2315 7.10355 37.0151 7.08204 36.8828C7.05917 36.7505 7.03228 36.5608 7.02152 36.462C7.00269 36.303 7 35.5135 7 29.7582V23.2361ZM19.2556 24.7457C19.2408 24.7791 19.1803 24.9181 19.1197 25.053L19.0095 25.3001C18.5562 25.3589 18.4029 25.3816 18.3747 25.3883C18.3464 25.395 18.3048 25.4177 18.2819 25.4377C18.259 25.4578 18.2321 25.4898 18.2227 25.5072C18.2133 25.5259 18.1891 25.6542 18.1703 25.7918C18.1514 25.9294 18.1272 26.059 18.1178 26.079C18.1071 26.099 18.0775 26.1351 18.0506 26.1592C18.0237 26.1832 17.982 26.2059 17.9578 26.2099C17.9336 26.2126 17.8112 26.23 17.6848 26.2473C17.5194 26.2687 17.4441 26.2847 17.4091 26.3048C17.3835 26.3208 17.3499 26.3582 17.3324 26.3916C17.3096 26.4357 17.2907 26.5292 17.2531 26.7897C17.2248 26.9901 17.1939 27.1611 17.1778 27.2039C17.163 27.2453 17.1361 27.2987 17.12 27.3241C17.1038 27.3508 17.0702 27.3909 17.0446 27.4136C17.0204 27.4377 16.9693 27.4697 16.9317 27.4858C16.8846 27.5058 16.8389 27.5151 16.777 27.5138C16.7165 27.5138 16.6519 27.5004 16.5618 27.4711C16.4919 27.447 16.3494 27.3922 16.2458 27.3481C16.1422 27.3054 15.8464 27.1651 15.5868 27.0382C15.3286 26.9113 14.9897 26.7403 14.8337 26.6575C14.6791 26.576 14.519 26.4985 14.4773 26.4878C14.4289 26.4731 14.3778 26.4678 14.3227 26.4731C14.2783 26.4771 14.2178 26.4905 14.1882 26.5025C14.1586 26.5145 14.1142 26.5372 14.09 26.5533C14.0658 26.5693 13.9569 26.6909 13.8493 26.8231C13.7404 26.9554 13.5763 27.1544 13.4835 27.264C13.392 27.3749 13.2401 27.5525 13.1473 27.6581C13.0545 27.765 12.8823 27.96 12.764 28.0923C12.6457 28.2245 12.4264 28.4623 12.2785 28.62C12.1306 28.7776 11.8374 29.0809 11.6263 29.2933C11.4165 29.5057 11.0977 29.8156 10.9202 29.9826C10.7427 30.1496 10.5221 30.3554 10.4294 30.4382C10.3366 30.5224 10.1644 30.676 10.0461 30.7789C9.92773 30.8817 9.70986 31.0688 9.56193 31.193C9.41399 31.3172 9.12754 31.5524 8.92313 31.714C8.72006 31.8743 8.48605 32.0587 8.40267 32.1201C8.32064 32.1829 8.25608 32.2377 8.26146 32.2417C8.26684 32.2457 8.40133 32.2671 8.56002 32.2871C8.7873 32.3165 8.8774 32.3232 8.97692 32.3165C9.0482 32.3112 9.15713 32.2992 9.21899 32.2885C9.2822 32.2778 9.3871 32.2537 9.45165 32.235C9.5162 32.2163 9.64396 32.1682 9.73407 32.1295C9.82417 32.0908 9.97748 32.0146 10.073 31.9612C10.1698 31.9077 10.3245 31.8142 10.4159 31.7541C10.5087 31.6926 10.6687 31.5751 10.7723 31.4923C10.8758 31.4081 11.2067 31.1382 11.5052 30.8911C11.8051 30.6439 12.1709 30.3433 12.3189 30.2231C12.4668 30.1029 12.7398 29.8838 12.924 29.7382C13.1096 29.5912 13.3934 29.3721 13.5561 29.2505C13.7188 29.129 13.9434 28.97 14.0537 28.8965C14.1653 28.823 14.3038 28.7402 14.363 28.7108C14.4222 28.6828 14.4948 28.656 14.5244 28.652C14.5661 28.6454 14.5836 28.6494 14.5984 28.6681C14.6118 28.6828 14.6185 28.7175 14.6185 28.7589C14.6172 28.803 14.6011 28.8658 14.5728 28.9339C14.5486 28.9927 14.4935 29.1049 14.4477 29.1811C14.4034 29.2586 14.2998 29.4215 14.2178 29.5418C14.1357 29.6633 13.9676 29.8945 13.8453 30.0561C13.7229 30.2178 13.5144 30.489 13.3799 30.6573C13.2468 30.827 13.0074 31.1249 12.8487 31.3186C12.6914 31.5136 12.3431 31.9411 12.0768 32.2671C11.8092 32.5944 11.4743 33.0099 11.3317 33.1889C11.1892 33.3693 10.9646 33.6578 10.8342 33.8302C10.7037 34.0038 10.5302 34.2443 10.4482 34.3645C10.3661 34.4861 10.2639 34.6451 10.2222 34.7186C10.1792 34.792 10.1254 34.8976 10.1039 34.9524C10.081 35.0085 10.0595 35.0833 10.0568 35.1193C10.0515 35.1755 10.0555 35.1915 10.0797 35.2129C10.1066 35.2382 10.1133 35.2382 10.1644 35.2222C10.1967 35.2129 10.2612 35.1821 10.3083 35.1568C10.3567 35.13 10.4536 35.0686 10.5235 35.0218C10.5948 34.9737 10.7239 34.8802 10.8126 34.8148C10.9014 34.748 11.0776 34.6117 11.2026 34.5128C11.3291 34.4126 11.6316 34.1655 11.8751 33.9638C12.1198 33.762 12.643 33.3238 13.0383 32.9898C13.4351 32.6559 13.934 32.2377 14.1478 32.06C14.363 31.8823 14.6777 31.6272 14.8472 31.4909C15.018 31.356 15.2694 31.1609 15.4053 31.0594C15.5424 30.9565 15.7388 30.8176 15.8423 30.7495C15.9459 30.6813 16.0858 30.5985 16.1517 30.5651C16.2203 30.5317 16.3036 30.4996 16.3426 30.4943C16.4031 30.485 16.4166 30.4876 16.4408 30.5103C16.4569 30.5264 16.469 30.5544 16.469 30.5771C16.469 30.5998 16.4583 30.6506 16.4475 30.6907C16.4354 30.7321 16.3937 30.8283 16.3547 30.9044C16.3157 30.9819 16.2445 31.1115 16.196 31.1917C16.1476 31.2732 16.0158 31.4709 15.9029 31.6325C15.7912 31.7942 15.6433 31.9986 15.5761 32.0868C15.5088 32.1749 15.2304 32.533 14.9561 32.8816C14.6831 33.2317 14.3321 33.6845 14.1774 33.8903C14.0228 34.096 13.8372 34.3525 13.7646 34.4581C13.6933 34.5649 13.587 34.7306 13.5292 34.8254C13.4714 34.9216 13.3813 35.0833 13.3275 35.1861C13.275 35.289 13.2065 35.4373 13.1769 35.5135C13.1459 35.5909 13.1056 35.7085 13.0854 35.774C13.0666 35.8408 13.0357 35.9637 13.0182 36.0478C12.9993 36.1333 12.9778 36.2856 12.9698 36.3885C12.9577 36.5314 12.9577 36.6223 12.9698 36.7732C12.9778 36.8815 12.9899 36.983 12.9967 37.0004C13.0061 37.0271 13.1123 36.9068 13.9233 35.961C14.6575 35.1033 14.9655 34.756 15.4819 34.2029L16.1248 33.5135C17.7238 32.0493 17.8852 31.9091 18.2362 31.6339C18.4581 31.4602 18.6638 31.2945 18.6934 31.2665C18.723 31.2384 18.7647 31.1863 18.7835 31.1502C18.8037 31.1142 18.8252 31.0527 18.8319 31.0113C18.8387 30.9712 18.84 30.9018 18.8333 30.8577C18.8279 30.8109 18.805 30.7441 18.7808 30.6974C18.7566 30.6533 18.6692 30.4916 18.5872 30.3367C18.5038 30.183 18.3572 29.8998 18.2604 29.7088C18.1635 29.5177 18.0385 29.2572 17.9807 29.1276C17.9242 28.9994 17.8556 28.831 17.8287 28.7536C17.7897 28.6387 17.7803 28.5946 17.7803 28.5064C17.7803 28.4209 17.787 28.3848 17.8139 28.3274C17.8341 28.282 17.8717 28.2325 17.9134 28.1965C17.9511 28.1644 18.0143 28.1257 18.0546 28.1096C18.1003 28.0936 18.2779 28.0615 18.5051 28.0308C18.8158 27.9881 18.8898 27.9734 18.9274 27.948C18.953 27.932 18.9839 27.9012 18.9974 27.8785C19.0148 27.8518 19.0337 27.7596 19.0565 27.5913C19.0754 27.4564 19.1023 27.3214 19.1144 27.292C19.1278 27.264 19.1547 27.2266 19.1749 27.2092C19.195 27.1918 19.234 27.1718 19.2623 27.1651C19.2905 27.1584 19.4129 27.1397 19.5339 27.1237C19.6725 27.105 19.776 27.085 19.8069 27.0689C19.8379 27.0529 19.8702 27.0222 19.889 26.9874C19.9159 26.9407 19.9293 26.8712 19.9643 26.6161C19.9885 26.4437 20.0114 26.2981 20.0167 26.2941C20.0208 26.2901 20.1566 26.226 20.318 26.1538C20.4794 26.0817 20.6112 26.0189 20.6112 26.0149C20.6112 26.0122 20.3113 25.7116 19.9455 25.3469L19.2811 24.6856L19.2556 24.7457ZM25.3114 23.2361H38V29.7529C38 34.3031 37.996 36.303 37.9852 36.3818C37.9771 36.4446 37.9597 36.5835 37.9449 36.6891C37.9301 36.796 37.8978 36.9857 37.8722 37.1099C37.8467 37.2355 37.801 37.4252 37.7714 37.5307C37.7431 37.6376 37.688 37.8153 37.6503 37.9248C37.6127 38.0357 37.5441 38.2134 37.4984 38.3189C37.454 38.4258 37.372 38.6008 37.3168 38.7064C37.2617 38.8132 37.1743 38.9695 37.1232 39.0537C37.0707 39.1392 36.9846 39.2715 36.9295 39.3476C36.8757 39.4251 36.7802 39.552 36.7184 39.6282C36.6552 39.7057 36.5422 39.8352 36.4669 39.9154C36.3902 39.9969 36.2638 40.1225 36.1858 40.1946C36.1078 40.2667 35.9639 40.3897 35.8684 40.4658C35.7716 40.5433 35.5995 40.6675 35.4851 40.7437C35.3708 40.8185 35.2094 40.9187 35.1288 40.9654C35.0467 41.0109 34.8692 41.1044 34.732 41.1725C34.5949 41.2407 34.3528 41.3515 34.1941 41.4197C34.0354 41.4865 33.8108 41.5786 33.6965 41.6214C33.5822 41.6655 33.4033 41.7269 33.2998 41.759C33.1962 41.7911 32.9878 41.8472 32.8358 41.8846C32.6838 41.9206 32.4566 41.9727 32.3315 41.9981C32.2051 42.0248 31.8541 42.0983 31.5515 42.1611C31.2475 42.2239 30.7674 42.3268 30.4823 42.3882C30.1972 42.451 29.744 42.5539 29.4737 42.6153C29.2034 42.6781 28.7407 42.789 28.4449 42.8612C28.149 42.9346 27.7792 43.0281 27.6245 43.0696C27.4685 43.111 27.2305 43.1778 27.0933 43.2178C26.9561 43.2566 26.6872 43.3408 26.4949 43.4049C26.3025 43.4677 25.9932 43.5745 25.809 43.644C25.6234 43.7122 25.3491 43.819 25.1971 43.8805C25.0451 43.9433 24.7882 44.0528 24.6255 44.125C24.4628 44.1971 24.1266 44.3574 23.8791 44.4803C23.6317 44.6032 23.3076 44.7702 23.1596 44.8517C23.0117 44.9332 22.8893 45 22.8866 45C22.8853 44.9987 22.8826 40.6448 22.8772 25.6475L25.3114 23.2361ZM26.9857 24.532L25.7417 24.6963L24.2705 26.1551C24.257 26.2794 24.2422 26.3996 24.2275 26.5025C24.2127 26.6054 24.1683 26.8979 24.1279 27.1504C24.0876 27.4043 24.0365 27.7436 24.0136 27.9052C23.9921 28.0669 23.9598 28.3167 23.945 28.4597C23.9262 28.632 23.9141 28.8564 23.9101 29.1209C23.9047 29.3828 23.9074 29.5845 23.9181 29.7021C23.9276 29.8023 23.945 29.9466 23.9598 30.0227C23.9733 30.1002 23.9961 30.2111 24.0109 30.2699C24.0271 30.3286 24.058 30.4315 24.0822 30.497C24.1051 30.5638 24.1508 30.672 24.1844 30.7374C24.218 30.8042 24.2826 30.9125 24.3283 30.9779C24.3727 31.0447 24.4615 31.1503 24.5247 31.2117C24.5879 31.2745 24.6928 31.3627 24.76 31.4081C24.8259 31.4522 24.9348 31.5163 25.0021 31.5497C25.068 31.5831 25.1769 31.6285 25.2442 31.6526C25.3101 31.6753 25.423 31.7087 25.4929 31.726C25.5629 31.7434 25.7081 31.7715 25.8157 31.7888C25.9838 31.8142 26.0659 31.8182 26.4074 31.8182C26.7006 31.8196 26.8633 31.8129 27.0328 31.7955C27.1579 31.7822 27.3556 31.7568 27.4699 31.7381C27.5842 31.7207 27.6837 31.706 27.6918 31.706C27.6998 31.706 27.7025 31.7621 27.6998 31.857C27.6958 31.9638 27.7012 32.036 27.7173 32.1068C27.7294 32.1629 27.7563 32.2431 27.7778 32.2871C27.798 32.3312 27.8424 32.4034 27.8747 32.4461C27.9069 32.4889 27.9728 32.5543 28.0213 32.5904C28.0697 32.6265 28.145 32.6746 28.1894 32.6946C28.2337 32.716 28.3117 32.7427 28.3642 32.7547C28.4341 32.7721 28.5014 32.7761 28.6251 32.7734L28.7919 32.7681C29.1617 33.1515 29.3338 33.3345 29.4132 33.4227C29.4939 33.5109 29.6351 33.6739 29.7279 33.7834C29.8193 33.8943 29.9538 34.0626 30.0264 34.1575C30.0977 34.2537 30.2026 34.4033 30.2604 34.4915C30.3169 34.5796 30.3962 34.7186 30.4353 34.7987C30.4756 34.8802 30.5213 34.9858 30.5375 35.0325C30.5549 35.0833 30.5697 35.1674 30.5724 35.2329C30.5765 35.297 30.5724 35.3705 30.5644 35.3999C30.5563 35.4293 30.52 35.4894 30.485 35.5335C30.4447 35.5843 30.3976 35.6243 30.3546 35.647C30.3008 35.6738 30.2685 35.6804 30.1932 35.6804C30.134 35.6791 30.0614 35.6684 29.9982 35.6484C29.943 35.6323 29.8462 35.5923 29.783 35.5602C29.7198 35.5295 29.6136 35.468 29.5477 35.4239C29.4804 35.3799 29.3715 35.3024 29.3056 35.2503C29.2383 35.1995 29.1146 35.098 29.0299 35.0245C28.9452 34.9524 28.7475 34.7667 28.5915 34.6117C28.4355 34.4581 28.2606 34.2817 28.2015 34.2189C28.1436 34.1575 28.0751 34.0987 28.0508 34.0893C28.0266 34.0786 27.9702 34.0706 27.9231 34.0706C27.8585 34.0706 27.8209 34.08 27.755 34.1107C27.7093 34.1334 27.642 34.1802 27.607 34.2149C27.5707 34.2496 27.525 34.3138 27.5021 34.3579C27.4699 34.426 27.4631 34.454 27.4631 34.5382C27.4631 34.6117 27.4699 34.6518 27.4887 34.6852C27.5035 34.7119 27.6568 34.8735 27.8316 35.0459C28.0065 35.2195 28.2378 35.4386 28.344 35.5348C28.4516 35.6297 28.5928 35.7539 28.6601 35.8087C28.726 35.8648 28.8322 35.949 28.8954 35.9971C28.9586 36.0452 29.0729 36.1267 29.1509 36.1788C29.2289 36.2295 29.3459 36.303 29.4132 36.3391C29.4791 36.3765 29.5947 36.4312 29.6687 36.4606C29.7427 36.49 29.857 36.5274 29.9242 36.5448C30.0183 36.5675 30.0829 36.5742 30.2134 36.5729C30.3371 36.5729 30.4084 36.5648 30.4823 36.5461C30.5375 36.5314 30.6289 36.498 30.684 36.4713C30.7392 36.4459 30.836 36.3885 30.8992 36.3444C30.9624 36.299 31.0619 36.2162 31.1198 36.1587C31.1789 36.1013 31.261 36.0037 31.3027 35.941C31.343 35.8795 31.3941 35.7833 31.4143 35.7272C31.4345 35.6724 31.46 35.5856 31.4708 35.5335C31.4815 35.4827 31.491 35.3678 31.491 35.2797C31.491 35.1915 31.4815 35.0659 31.4708 34.9991C31.4587 34.9337 31.4345 34.8254 31.4156 34.7586C31.3968 34.6932 31.3538 34.5729 31.3202 34.4915C31.2865 34.4113 31.2274 34.2817 31.187 34.2042C31.148 34.1281 31.0741 33.9972 31.0243 33.9143C30.9732 33.8315 30.8817 33.6899 30.8185 33.6004C30.7553 33.5109 30.6477 33.3652 30.5778 33.2771C30.5079 33.1876 30.3963 33.0526 30.3304 32.9752C30.2645 32.899 30.1152 32.7347 29.9995 32.6104C29.8839 32.4862 29.7158 32.3165 29.6243 32.2324L29.4602 32.0801C29.4804 32.0026 29.4871 31.9264 29.4871 31.8596C29.4871 31.7942 29.4777 31.7033 29.467 31.6592C29.4562 31.6152 29.4239 31.535 29.3957 31.4789C29.3607 31.4081 29.3177 31.3506 29.2451 31.2785C29.1899 31.2237 29.1106 31.1596 29.0702 31.1356C29.0299 31.1115 28.9505 31.0754 28.8954 31.0567C28.804 31.0233 28.7757 31.0207 28.6022 31.0193C28.4973 31.0193 28.4113 31.0153 28.4113 31.0113C28.4113 31.0086 28.5901 30.8283 28.808 30.6105L29.2047 30.2164L33.098 34.084C33.2715 34.6384 33.332 34.8228 33.3455 34.8522C33.3616 34.8896 33.3831 34.9136 33.4181 34.9296C33.445 34.9417 33.48 34.9524 33.4948 34.9524C33.5096 34.9524 33.5378 34.947 33.558 34.939C33.5782 34.931 34.0004 34.5235 34.494 34.0332C34.9875 33.5429 35.4018 33.1261 35.4125 33.1061C35.4219 33.086 35.4313 33.05 35.4313 33.0259C35.4313 33.0019 35.4206 32.9645 35.4071 32.9418C35.3937 32.9204 35.3614 32.8923 35.3359 32.8803C35.3103 32.8683 35.1247 32.8082 34.9243 32.7467L34.5572 32.6345L30.6639 28.7683C31.1547 28.2753 31.3188 28.1003 31.3457 28.0589C31.3726 28.0188 31.4156 27.9413 31.4425 27.8852C31.4694 27.8304 31.5017 27.7369 31.5165 27.6781C31.5313 27.6193 31.5501 27.5058 31.5569 27.4243C31.5649 27.3441 31.5716 27.2025 31.5716 27.1104C31.5716 27.0195 31.5622 26.8659 31.5515 26.7697C31.5394 26.6748 31.5138 26.5239 31.4923 26.4357C31.4708 26.3475 31.4304 26.2153 31.4035 26.1418C31.3766 26.0683 31.3175 25.9401 31.2731 25.8546C31.2287 25.7704 31.1588 25.6528 31.1171 25.5941C31.0767 25.5353 31.0028 25.4391 30.953 25.3803C30.9033 25.3215 30.8199 25.2347 30.7701 25.1866C30.719 25.1385 30.6195 25.0557 30.5496 25.0022C30.4796 24.9475 30.3707 24.8726 30.3075 24.8339C30.2443 24.7952 30.13 24.731 30.052 24.6923C29.974 24.6535 29.8502 24.5988 29.7763 24.5707C29.7023 24.5427 29.5907 24.5039 29.5275 24.4852C29.4643 24.4678 29.3621 24.4411 29.2989 24.4264C29.2356 24.4117 29.1213 24.3904 29.0433 24.3783C28.964 24.3663 28.7865 24.3556 28.6399 24.353C28.496 24.3503 28.344 24.3516 28.3037 24.357C28.2633 24.3623 27.6703 24.4411 26.9857 24.532ZM17.861 14.5872C17.947 14.5899 18.0533 14.6046 18.1165 14.6193C18.1757 14.6353 18.2631 14.666 18.3115 14.6874C18.3599 14.7101 18.4352 14.7542 18.4796 14.7863C18.524 14.8183 18.5885 14.8731 18.6221 14.9092C18.6571 14.9452 18.7069 15.004 18.7351 15.0401C18.762 15.0775 18.8077 15.1523 18.836 15.2071C18.8629 15.2632 19.2838 16.2919 20.6515 19.6825L20.002 20.3384C19.6456 20.6978 19.347 20.9904 19.3403 20.9877C19.3322 20.985 18.3007 20.5936 17.0473 20.1167C15.7939 19.6411 14.7369 19.239 14.7006 19.2229C14.6629 19.2069 14.5903 19.1668 14.5392 19.1334C14.4867 19.1 14.4087 19.0399 14.3657 19.0012C14.3227 18.9611 14.2568 18.8836 14.2218 18.8275C14.1842 18.77 14.1371 18.6739 14.1129 18.6004C14.0712 18.4788 14.0698 18.4654 14.0685 18.253C14.0685 18.086 14.0739 18.0059 14.0927 17.919C14.1075 17.8576 14.1384 17.7454 14.1626 17.6719C14.1868 17.5984 14.2339 17.4755 14.2689 17.398C14.3025 17.3219 14.3671 17.1923 14.4114 17.1108C14.4572 17.0306 14.55 16.8797 14.6199 16.7768C14.6885 16.6739 14.8041 16.5176 14.8754 16.4295C14.9453 16.3413 15.0744 16.1917 15.1619 16.0968C15.2479 16.002 15.4039 15.8457 15.5075 15.7508C15.611 15.656 15.7738 15.5143 15.8706 15.4382C15.9661 15.362 16.1396 15.2365 16.2539 15.1603C16.3682 15.0855 16.5255 14.9893 16.6035 14.9479C16.6815 14.9065 16.8026 14.8464 16.8725 14.8143C16.9424 14.7822 17.0608 14.7355 17.1347 14.7101C17.2087 14.6847 17.323 14.65 17.3903 14.6353C17.4562 14.6193 17.557 14.6006 17.6122 14.5939C17.6673 14.5872 17.7789 14.5832 17.861 14.5872ZM29.0285 25.045C29.077 25.0503 29.1684 25.0664 29.2316 25.0797C29.2948 25.0931 29.3943 25.1198 29.4535 25.1398C29.5127 25.1599 29.6243 25.2053 29.7023 25.2414C29.7803 25.2788 29.8731 25.3282 29.9108 25.3509C29.9471 25.3736 30.0264 25.4297 30.0856 25.4752C30.1448 25.5206 30.251 25.6168 30.3209 25.6902C30.3909 25.7624 30.4877 25.8786 30.5348 25.9494C30.5832 26.0189 30.6545 26.1391 30.6921 26.2153C30.7311 26.2928 30.7876 26.4277 30.8172 26.5159C30.8468 26.604 30.8831 26.7363 30.8992 26.8098C30.914 26.8832 30.9302 27.0035 30.9355 27.077C30.9423 27.1945 30.9396 27.2186 30.914 27.2773C30.8912 27.3308 30.8199 27.4096 30.559 27.6688C30.329 27.8972 30.2241 27.9921 30.2026 27.9921C30.1865 27.9921 30.169 27.9854 30.1636 27.976C30.1582 27.9667 30.1542 27.7636 30.1528 27.5245C30.1515 27.1865 30.1461 27.0609 30.1273 26.9567C30.1152 26.8832 30.0896 26.7603 30.0708 26.6828C30.052 26.6067 30.0157 26.4798 29.9901 26.4023C29.9632 26.3262 29.9094 26.1966 29.8704 26.1151C29.8314 26.0349 29.7507 25.896 29.6916 25.8078C29.6324 25.7196 29.5369 25.5967 29.4777 25.5353C29.4199 25.4738 29.3217 25.3843 29.2585 25.3349C29.1953 25.2868 29.0958 25.22 29.0366 25.1866C28.9694 25.1478 28.9277 25.1158 28.925 25.0998C28.9223 25.0851 28.925 25.065 28.929 25.0543C28.9371 25.041 28.9586 25.0383 29.0285 25.045Z" fill="white"/>
<path d="M51.6914 4.44531V19H49.8352V4.44531H51.6914ZM56.9589 8.72734V19H55.187V8.72734H56.9589ZM62.5488 12.8617V14.2328H56.8323V12.8617H62.5488ZM64.1308 8.72734V19H62.3589V8.72734H64.1308ZM71.8729 8.72734V19H70.0799V8.72734H71.8729ZM75.5854 8.72734V10.2039H66.3463V8.72734H75.5854ZM81.8591 8.47422C83.406 8.47422 84.5239 8.75547 85.213 9.31797C85.9161 9.88047 86.2747 10.7172 86.2888 11.8281C86.2888 12.7422 86.0919 13.4594 85.6982 13.9797C85.3185 14.4859 84.6997 14.7391 83.8419 14.7391H77.8302V13.3469H83.3778C83.8278 13.3469 84.1232 13.1922 84.2638 12.8828C84.4185 12.5594 84.4888 12.2078 84.4747 11.8281C84.4747 11.1672 84.2849 10.6961 83.9052 10.4148C83.5255 10.1336 82.8716 9.99297 81.9435 9.99297C81.1982 9.99297 80.6075 10.1055 80.1716 10.3305C79.7497 10.5414 79.4474 10.9211 79.2646 11.4695C79.0958 12.0039 79.0114 12.7562 79.0114 13.7266C79.0114 14.8234 79.1169 15.6602 79.3278 16.2367C79.5528 16.8133 79.9044 17.207 80.3825 17.418C80.8607 17.6289 81.4935 17.7344 82.281 17.7344C82.8435 17.7344 83.4482 17.7133 84.095 17.6711C84.756 17.6148 85.3466 17.5516 85.8669 17.4812L86.0357 18.6836C85.7263 18.8102 85.3325 18.9156 84.8544 19C84.3763 19.0844 83.8841 19.1477 83.3778 19.1898C82.8857 19.232 82.4427 19.2531 82.0489 19.2531C80.8818 19.2531 79.9325 19.0773 79.2013 18.7258C78.4841 18.3602 77.9638 17.7836 77.6403 16.9961C77.3169 16.1945 77.1552 15.1398 77.1552 13.832C77.1552 12.482 77.3169 11.4203 77.6403 10.6469C77.9778 9.85937 78.4911 9.30391 79.1802 8.98047C79.8693 8.64297 80.7622 8.47422 81.8591 8.47422ZM97.2584 8.72734V10.1406H93.5037C93.0677 10.1406 92.7513 10.2391 92.5544 10.4359C92.3716 10.6187 92.2451 10.9492 92.1748 11.4273C92.1044 12.0461 92.0201 12.6789 91.9216 13.3258C91.8373 13.9727 91.7388 14.5984 91.6263 15.2031C91.5138 15.8078 91.3662 16.3492 91.1834 16.8273C91.0146 17.3195 90.7826 17.7344 90.4873 18.0719C90.1919 18.4094 89.8334 18.6625 89.4115 18.8312C89.0037 19 88.5185 19.0914 87.956 19.1055L87.7662 17.7344C88.1459 17.6359 88.4482 17.5234 88.6732 17.3969C88.9123 17.2703 89.0951 17.1156 89.2216 16.9328C89.3623 16.75 89.4818 16.5391 89.5802 16.3C89.7068 15.9625 89.8193 15.5758 89.9177 15.1398C90.0162 14.7039 90.1005 14.2469 90.1709 13.7687C90.2412 13.2906 90.2974 12.8266 90.3396 12.3766C90.3959 11.9125 90.4451 11.4977 90.4873 11.132C90.5857 10.3445 90.8388 9.74687 91.2466 9.33906C91.6685 8.93125 92.3084 8.72734 93.1662 8.72734H97.2584ZM97.5326 8.72734V19H95.7396V8.72734H97.5326ZM105.095 8.47422C106.642 8.47422 107.76 8.75547 108.449 9.31797C109.152 9.88047 109.511 10.7172 109.525 11.8281C109.525 12.7422 109.328 13.4594 108.934 13.9797C108.555 14.4859 107.936 14.7391 107.078 14.7391H101.066V13.3469H106.614C107.064 13.3469 107.359 13.1922 107.5 12.8828C107.655 12.5594 107.725 12.2078 107.711 11.8281C107.711 11.1672 107.521 10.6961 107.141 10.4148C106.762 10.1336 106.108 9.99297 105.18 9.99297C104.434 9.99297 103.844 10.1055 103.408 10.3305C102.986 10.5414 102.683 10.9211 102.501 11.4695C102.332 12.0039 102.248 12.7562 102.248 13.7266C102.248 14.8234 102.353 15.6602 102.564 16.2367C102.789 16.8133 103.14 17.207 103.619 17.418C104.097 17.6289 104.73 17.7344 105.517 17.7344C106.08 17.7344 106.684 17.7133 107.331 17.6711C107.992 17.6148 108.583 17.5516 109.103 17.4812L109.272 18.6836C108.962 18.8102 108.569 18.9156 108.09 19C107.612 19.0844 107.12 19.1477 106.614 19.1898C106.122 19.232 105.679 19.2531 105.285 19.2531C104.118 19.2531 103.169 19.0773 102.437 18.7258C101.72 18.3602 101.2 17.7836 100.876 16.9961C100.553 16.1945 100.391 15.1398 100.391 13.832C100.391 12.482 100.553 11.4203 100.876 10.6469C101.214 9.85937 101.727 9.30391 102.416 8.98047C103.105 8.64297 103.998 8.47422 105.095 8.47422ZM120.895 8.72734C120.67 9.33203 120.452 9.8875 120.241 10.3937C120.044 10.8859 119.841 11.3219 119.63 11.7016C119.433 12.0812 119.208 12.4047 118.955 12.6719C118.716 12.9391 118.434 13.157 118.111 13.3258C117.787 13.4805 117.408 13.5789 116.972 13.6211V13.6844C117.436 13.7266 117.837 13.825 118.174 13.9797C118.512 14.1344 118.807 14.3523 119.06 14.6336C119.327 14.9008 119.566 15.2383 119.777 15.6461C120.002 16.0539 120.227 16.5391 120.452 17.1016C120.677 17.65 120.923 18.2828 121.191 19H119.313C119.06 18.3391 118.828 17.7555 118.617 17.2492C118.406 16.7289 118.195 16.2859 117.984 15.9203C117.787 15.5547 117.569 15.2594 117.33 15.0344C117.091 14.7953 116.81 14.6266 116.487 14.5281C116.177 14.4156 115.812 14.3594 115.39 14.3594V12.9672C115.896 12.9672 116.325 12.8758 116.676 12.693C117.028 12.4961 117.33 12.2148 117.584 11.8492C117.851 11.4836 118.097 11.0406 118.322 10.5203C118.547 10 118.786 9.40234 119.039 8.72734H120.895ZM114.061 8.72734V11.7859C114.061 12.0953 114.04 12.4047 113.998 12.7141C113.955 13.0234 113.892 13.3258 113.808 13.6211C113.892 13.9164 113.955 14.2117 113.998 14.507C114.04 14.8023 114.061 15.0836 114.061 15.3508V19H112.268V8.72734H114.061ZM116.065 12.9672V14.3594H113.534V12.9672H116.065ZM127.986 8.72734V19H126.193V8.72734H127.986ZM131.698 8.72734V10.2039H122.459V8.72734H131.698Z" fill="white"/>
<path d="M63.9975 23.5344C63.6094 24.8 63.2803 25.88 63.0103 26.7744C62.7403 27.6687 62.4788 28.4197 62.2256 29.0272C61.9725 29.6347 61.6856 30.1325 61.365 30.5206C61.0613 30.8919 60.6816 31.1787 60.2259 31.3812C59.7703 31.5837 59.1966 31.7272 58.5047 31.8116V31.9634C59.2303 32.0647 59.8294 32.2166 60.3019 32.4191C60.7913 32.6047 61.2047 32.9 61.5422 33.305C61.8966 33.6931 62.2172 34.2162 62.5041 34.8744C62.7909 35.5325 63.0863 36.3594 63.39 37.355C63.6938 38.3506 64.065 39.5656 64.5038 41H59.5425C59.0869 39.4137 58.7072 38.1312 58.4034 37.1525C58.1166 36.1569 57.8297 35.3975 57.5428 34.8744C57.2559 34.3512 56.9184 33.9969 56.5303 33.8112C56.1591 33.6087 55.6697 33.5075 55.0622 33.5075L54.9863 30.3434C55.6106 30.3434 56.1169 30.2337 56.505 30.0144C56.8931 29.795 57.2222 29.4322 57.4922 28.9259C57.7622 28.4028 58.0238 27.7025 58.2769 26.825C58.53 25.9475 58.8338 24.8506 59.1881 23.5344H63.9975ZM54.3534 23.5344V28.1919C54.3534 28.7994 54.2944 29.4237 54.1763 30.065C54.075 30.6894 53.9147 31.28 53.6953 31.8369C53.8641 32.36 54.0159 32.9253 54.1509 33.5328C54.2859 34.1234 54.3534 34.6634 54.3534 35.1528V41H49.62V23.5344H54.3534ZM56.2266 30.3434V33.5075H53.1891V30.3434H56.2266ZM71.1631 23.5344V41H66.4044V23.5344H71.1631ZM76.58 23.5344V26.7237H70.9606V23.5344H76.58ZM81.0603 23.5344V41H76.3016V23.5344H81.0603ZM89.0092 23.5344V41H84.3011V23.5344H89.0092Z" fill="white"/>
</svg>
