<svg xmlns="http://www.w3.org/2000/svg" width="200" height="200" fill="none" viewBox="0 0 200 200"><g clip-path="url(#clip0_491_530)"><rect width="200" height="200" fill="#9798A8" rx="100"/><circle cx="100" cy="100" r="100" fill="#F8F8FF"/><rect width="7.069" height="21.333" x="135.754" y="138.283" fill="#E1E1EC" transform="rotate(-45 135.754 138.283)"/><rect width="24" height="81.333" x="144.383" y="158.883" fill="#C7C8D5" rx="4.667" transform="rotate(-45 144.383 158.883)"/><rect width="24" height="81.333" x="144.383" y="158.883" fill="#C7C8D5" rx="4.667" transform="rotate(-45 144.383 158.883)"/><g filter="url(#filter0_d_491_530)"><circle cx="96.771" cy="94.772" r="59" fill="#E1E1EC" transform="rotate(-45 96.7706 94.7715)"/></g><g filter="url(#filter1_i_491_530)"><circle cx="96.77" cy="94.772" r="48.556" fill="#fff" transform="rotate(-45 96.7696 94.7715)"/></g><circle cx="128" cy="163.332" r="2" fill="#C7C8D5"/><circle cx="124.665" cy="81.331" r="1.333" fill="#C7C8D5"/><circle cx="66.665" cy="20.667" r="1.333" fill="#C7C8D5"/><circle cx="153.333" cy="51.999" r="1.333" fill="#C7C8D5"/><path fill="#C7C8D5" d="M144.707 32.3557C144.922 31.7753 145.742 31.7753 145.957 32.3557L146.846 34.758C146.914 34.9405 147.058 35.0843 147.24 35.1519L149.642 36.0408C150.223 36.2556 150.223 37.0765 149.642 37.2913L147.24 38.1802C147.058 38.2477 146.914 38.3916 146.846 38.5741L145.957 40.9763C145.742 41.5568 144.922 41.5568 144.707 40.9763L143.818 38.5741C143.75 38.3916 143.606 38.2477 143.424 38.1802L141.022 37.2913C140.441 37.0765 140.441 36.2556 141.022 36.0408L143.424 35.1519C143.606 35.0843 143.75 34.9405 143.818 34.758L144.707 32.3557Z"/><path fill="#C7C8D5" d="M29.3748 139.69C29.5895 139.109 30.4105 139.109 30.6252 139.69L30.974 140.632C31.0415 140.815 31.1854 140.958 31.3679 141.026L32.3103 141.375C32.8907 141.59 32.8907 142.41 32.3103 142.625L31.3679 142.974C31.1854 143.042 31.0415 143.185 30.974 143.368L30.6252 144.31C30.4105 144.891 29.5895 144.891 29.3748 144.31L29.026 143.368C28.9585 143.185 28.8146 143.042 28.6321 142.974L27.6897 142.625C27.1093 142.41 27.1093 141.59 27.6897 141.375L28.6321 141.026C28.8146 140.958 28.9585 140.815 29.026 140.632L29.3748 139.69Z"/><circle cx="31.332" cy="62" r="2" fill="#C7C8D5"/></g><defs><filter id="filter0_d_491_530" width="120.667" height="120.667" x="37.77" y="35.772" color-interpolation-filters="sRGB" filterUnits="userSpaceOnUse"><feFlood flood-opacity="0" result="BackgroundImageFix"/><feColorMatrix in="SourceAlpha" result="hardAlpha" type="matrix" values="0 0 0 0 0 0 0 0 0 0 0 0 0 0 0 0 0 0 127 0"/><feOffset dx="2.667" dy="2.667"/><feComposite in2="hardAlpha" operator="out"/><feColorMatrix type="matrix" values="0 0 0 0 0.819608 0 0 0 0 0.835294 0 0 0 0 0.870588 0 0 0 1 0"/><feBlend in2="BackgroundImageFix" mode="normal" result="effect1_dropShadow_491_530"/><feBlend in="SourceGraphic" in2="effect1_dropShadow_491_530" mode="normal" result="shape"/></filter><filter id="filter1_i_491_530" width="97.109" height="97.109" x="48.215" y="46.217" color-interpolation-filters="sRGB" filterUnits="userSpaceOnUse"><feFlood flood-opacity="0" result="BackgroundImageFix"/><feBlend in="SourceGraphic" in2="BackgroundImageFix" mode="normal" result="shape"/><feColorMatrix in="SourceAlpha" result="hardAlpha" type="matrix" values="0 0 0 0 0 0 0 0 0 0 0 0 0 0 0 0 0 0 127 0"/><feOffset dx="2.667" dy="2.667"/><feComposite in2="hardAlpha" k2="-1" k3="1" operator="arithmetic"/><feColorMatrix type="matrix" values="0 0 0 0 0.819608 0 0 0 0 0.835294 0 0 0 0 0.870588 0 0 0 1 0"/><feBlend in2="shape" mode="normal" result="effect1_innerShadow_491_530"/></filter><clipPath id="clip0_491_530"><rect width="200" height="200" fill="#fff" rx="100"/></clipPath></defs></svg>